<mxfile host="app.diagrams.net" modified="2020-12-21T14:36:47.973Z" agent="5.0 (Macintosh; Intel Mac OS X 11_1_0) AppleWebKit/537.36 (KHTML, like Gecko) Chrome/87.0.4280.88 Safari/537.36" etag="vOpNaqmWf7VGpcCR2xF8" version="14.1.1" type="github">
  <diagram id="Ph6nvh0KX0OQH2NLPqCL" name="Page-1">
    <mxGraphModel dx="788" dy="1600" grid="1" gridSize="10" guides="1" tooltips="1" connect="1" arrows="1" fold="1" page="1" pageScale="1" pageWidth="827" pageHeight="1169" math="0" shadow="0">
      <root>
        <mxCell id="0" />
        <mxCell id="1" parent="0" />
        <mxCell id="s04vDubmSI25b-BMHzst-4" style="edgeStyle=orthogonalEdgeStyle;rounded=0;orthogonalLoop=1;jettySize=auto;html=1;exitX=0.5;exitY=1;exitDx=0;exitDy=0;strokeColor=#99CCFF;entryX=0.5;entryY=0;entryDx=0;entryDy=0;" parent="1" source="s04vDubmSI25b-BMHzst-6" target="s04vDubmSI25b-BMHzst-13" edge="1">
          <mxGeometry relative="1" as="geometry">
            <mxPoint x="193" y="170" as="targetPoint" />
          </mxGeometry>
        </mxCell>
        <mxCell id="s04vDubmSI25b-BMHzst-6" value="&lt;strong style=&quot;box-sizing: border-box; color: rgb(51, 51, 51); font-size: 12px;&quot;&gt;&lt;span class=&quot;md-plain&quot; style=&quot;box-sizing: border-box; font-size: 12px;&quot;&gt;&lt;font face=&quot;Comic Sans MS&quot; style=&quot;font-size: 12px;&quot;&gt;无法推导函数的返回值类型&lt;/font&gt;&lt;/span&gt;&lt;/strong&gt;" style="rhombus;whiteSpace=wrap;html=1;strokeWidth=2;fillWeight=-1;hachureGap=8;fillStyle=cross-hatch;sketch=0;shadow=1;glass=0;fillColor=#dae8fc;dashed=1;strokeColor=#6c8ebf;fontSize=12;" parent="1" vertex="1">
          <mxGeometry x="142" y="41" width="120" height="60" as="geometry" />
        </mxCell>
        <mxCell id="s04vDubmSI25b-BMHzst-11" value="" style="shape=curlyBracket;whiteSpace=wrap;html=1;rounded=1;fillColor=#dae8fc;strokeColor=#6c8ebf;strokeWidth=2;" parent="1" vertex="1">
          <mxGeometry x="660" y="330" width="20" height="140" as="geometry" />
        </mxCell>
        <mxCell id="BNzrlYS9I8KQio5aA35w-13" style="edgeStyle=orthogonalEdgeStyle;rounded=0;orthogonalLoop=1;jettySize=auto;html=1;exitX=0.5;exitY=1;exitDx=0;exitDy=0;entryX=0.5;entryY=0;entryDx=0;entryDy=0;fontSize=14;" parent="1" source="s04vDubmSI25b-BMHzst-13" target="BNzrlYS9I8KQio5aA35w-10" edge="1">
          <mxGeometry relative="1" as="geometry" />
        </mxCell>
        <mxCell id="s04vDubmSI25b-BMHzst-13" value="&lt;font color=&quot;#007fff&quot; face=&quot;Comic Sans MS&quot; style=&quot;font-size: 12px;&quot;&gt;内嵌型别&lt;br style=&quot;font-size: 12px;&quot;&gt;&lt;/font&gt;" style="rounded=1;whiteSpace=wrap;html=1;labelBackgroundColor=none;fontSize=12;fillColor=#ffe6cc;strokeColor=#d79b00;align=left;shadow=1;sketch=0;glass=0;" parent="1" vertex="1">
          <mxGeometry x="172.63" y="132.75" width="53.75" height="30" as="geometry" />
        </mxCell>
        <mxCell id="s04vDubmSI25b-BMHzst-14" value="&lt;span style=&quot;font-family: &amp;#34;courier new&amp;#34; ; font-size: 15px ; background-color: rgb(239 , 239 , 239)&quot;&gt;非类类型的原生指针&lt;/span&gt;" style="text;whiteSpace=wrap;html=1;" parent="1" vertex="1">
          <mxGeometry x="122" y="720" width="142" height="30" as="geometry" />
        </mxCell>
        <mxCell id="s04vDubmSI25b-BMHzst-16" value="&lt;div style=&quot;text-align: left ; font-size: 17px&quot;&gt;&lt;font color=&quot;#007fff&quot; face=&quot;comic sans ms&quot; style=&quot;font-size: 17px&quot;&gt;int*&lt;/font&gt;&lt;/div&gt;&lt;div style=&quot;text-align: left ; font-size: 17px&quot;&gt;&lt;font color=&quot;#007fff&quot; face=&quot;comic sans ms&quot; style=&quot;font-size: 17px&quot;&gt;char*&lt;/font&gt;&lt;/div&gt;&lt;div style=&quot;text-align: left ; font-size: 17px&quot;&gt;&lt;font color=&quot;#007fff&quot; face=&quot;comic sans ms&quot; style=&quot;font-size: 17px&quot;&gt;double*&lt;/font&gt;&lt;/div&gt;&lt;div style=&quot;text-align: left ; font-size: 17px&quot;&gt;&lt;font color=&quot;#007fff&quot; face=&quot;comic sans ms&quot; style=&quot;font-size: 17px&quot;&gt;...&lt;/font&gt;&lt;/div&gt;" style="rounded=1;whiteSpace=wrap;html=1;dashed=1;labelBackgroundColor=none;fontSize=15;fillColor=none;strokeWidth=2;" parent="1" vertex="1">
          <mxGeometry x="30" y="520" width="340" height="190" as="geometry" />
        </mxCell>
        <mxCell id="s04vDubmSI25b-BMHzst-107" value="" style="shape=curlyBracket;whiteSpace=wrap;html=1;rounded=1;fillColor=#dae8fc;strokeColor=#6c8ebf;strokeWidth=2;" parent="1" vertex="1">
          <mxGeometry x="523" y="-12.75" width="30" height="90" as="geometry" />
        </mxCell>
        <mxCell id="s04vDubmSI25b-BMHzst-109" value="&lt;font face=&quot;Comic Sans MS&quot;&gt;C++ 两种编程范式&lt;/font&gt;" style="rounded=0;whiteSpace=wrap;html=1;fillColor=#d5e8d4;strokeColor=#82b366;dashed=1;fontSize=15;" parent="1" vertex="1">
          <mxGeometry x="400" y="20" width="123" height="34.5" as="geometry" />
        </mxCell>
        <mxCell id="s04vDubmSI25b-BMHzst-111" value="&lt;div style=&quot;text-align: left ; font-size: 16px&quot;&gt;&lt;font color=&quot;#cc99ff&quot; face=&quot;Verdana&quot; style=&quot;font-size: 16px&quot;&gt;template&amp;lt;class T&amp;gt;&lt;/font&gt;&lt;/div&gt;&lt;div style=&quot;text-align: left ; font-size: 16px&quot;&gt;&lt;font face=&quot;Verdana&quot; style=&quot;font-size: 16px&quot;&gt;&lt;font color=&quot;#cc99ff&quot; style=&quot;font-size: 16px&quot;&gt;struct&lt;/font&gt;&lt;font color=&quot;#007fff&quot; style=&quot;font-size: 16px&quot;&gt; &lt;/font&gt;MyIter&lt;font color=&quot;#007fff&quot; style=&quot;font-size: 16px&quot;&gt; {&lt;/font&gt;&lt;/font&gt;&lt;/div&gt;&lt;div style=&quot;text-align: left ; font-size: 16px&quot;&gt;&lt;font face=&quot;Verdana&quot; style=&quot;font-size: 16px&quot;&gt;&lt;font color=&quot;#007fff&quot; style=&quot;font-size: 16px&quot;&gt;&amp;nbsp; &amp;nbsp; &amp;nbsp; &lt;/font&gt;&lt;font color=&quot;#cc99ff&quot; style=&quot;font-size: 16px&quot;&gt;typedef&lt;/font&gt;&lt;font color=&quot;#007fff&quot; style=&quot;font-size: 16px&quot;&gt; &lt;/font&gt;T value_type;&lt;/font&gt;&lt;/div&gt;&lt;div style=&quot;text-align: left ; font-size: 16px&quot;&gt;&lt;font color=&quot;#007fff&quot; face=&quot;Verdana&quot; style=&quot;font-size: 16px&quot;&gt;&amp;nbsp; &amp;nbsp; &amp;nbsp; &amp;nbsp;T* ptr;&lt;/font&gt;&lt;/div&gt;&lt;div style=&quot;text-align: left ; font-size: 16px&quot;&gt;&lt;font color=&quot;#007fff&quot; face=&quot;Verdana&quot; style=&quot;font-size: 16px&quot;&gt;&amp;nbsp; &amp;nbsp; &amp;nbsp; &amp;nbsp; MyIter(T* p=0) {return *ptr}&lt;/font&gt;&lt;/div&gt;&lt;div style=&quot;text-align: left ; font-size: 16px&quot;&gt;&lt;font face=&quot;Verdana&quot; style=&quot;font-size: 16px&quot;&gt;&lt;font color=&quot;#007fff&quot; style=&quot;font-size: 16px&quot;&gt;&amp;nbsp; &amp;nbsp; &amp;nbsp; &amp;nbsp; T&amp;amp; operator*() const {return *ptr&lt;/font&gt;&lt;span style=&quot;color: rgb(0 , 127 , 255)&quot;&gt;}&lt;/span&gt;&lt;/font&gt;&lt;/div&gt;&lt;div style=&quot;text-align: left ; font-size: 16px&quot;&gt;&lt;span style=&quot;color: rgb(0 , 127 , 255)&quot;&gt;&lt;font face=&quot;Verdana&quot; style=&quot;font-size: 16px&quot;&gt;&amp;nbsp; &amp;nbsp; &amp;nbsp; &amp;nbsp; //...&lt;/font&gt;&lt;/span&gt;&lt;/div&gt;&lt;div style=&quot;text-align: left ; font-size: 16px&quot;&gt;&lt;font color=&quot;#007fff&quot; face=&quot;Verdana&quot; style=&quot;font-size: 16px&quot;&gt;};&lt;/font&gt;&lt;/div&gt;" style="rounded=1;whiteSpace=wrap;html=1;dashed=1;labelBackgroundColor=none;fontSize=15;fillColor=none;strokeWidth=2;" parent="1" vertex="1">
          <mxGeometry x="385" y="520" width="405" height="190" as="geometry" />
        </mxCell>
        <mxCell id="s04vDubmSI25b-BMHzst-112" value="使用内嵌声明" style="ellipse;whiteSpace=wrap;html=1;dashed=1;strokeColor=#000000;fillColor=none;gradientColor=none;fontSize=15;" parent="1" vertex="1">
          <mxGeometry x="620" y="520" width="70" height="70" as="geometry" />
        </mxCell>
        <mxCell id="s04vDubmSI25b-BMHzst-116" value="" style="endArrow=none;dashed=1;html=1;fontSize=15;startArrow=block;startFill=1;entryX=0;entryY=0.5;entryDx=0;entryDy=0;" parent="1" target="s04vDubmSI25b-BMHzst-112" edge="1">
          <mxGeometry width="50" height="50" relative="1" as="geometry">
            <mxPoint x="544" y="575" as="sourcePoint" />
            <mxPoint x="594" y="525" as="targetPoint" />
          </mxGeometry>
        </mxCell>
        <mxCell id="s04vDubmSI25b-BMHzst-117" value="&lt;font face=&quot;courier new&quot;&gt;&lt;span style=&quot;font-size: 15px ; background-color: rgb(239 , 239 , 239)&quot;&gt;类类型的迭代器&lt;/span&gt;&lt;/font&gt;" style="text;whiteSpace=wrap;html=1;" parent="1" vertex="1">
          <mxGeometry x="533" y="720" width="117" height="30" as="geometry" />
        </mxCell>
        <mxCell id="s04vDubmSI25b-BMHzst-119" value="&lt;div style=&quot;color: rgb(238 , 255 , 255) ; font-family: &amp;#34;menlo&amp;#34; , &amp;#34;monaco&amp;#34; , &amp;#34;courier new&amp;#34; , monospace ; font-size: 15px ; font-style: normal ; font-weight: 400 ; letter-spacing: normal ; text-align: left ; text-indent: 0px ; text-transform: none ; word-spacing: 0px&quot;&gt;&lt;span style=&quot;color: rgb(199 , 146 , 234)&quot;&gt;&amp;nbsp;&amp;nbsp;&lt;/span&gt;&lt;/div&gt;&lt;div style=&quot;color: rgb(238 , 255 , 255) ; font-family: &amp;#34;menlo&amp;#34; , &amp;#34;monaco&amp;#34; , &amp;#34;courier new&amp;#34; , monospace ; font-size: 15px ; font-style: normal ; font-weight: 400 ; letter-spacing: normal ; text-align: left ; text-indent: 0px ; text-transform: none ; word-spacing: 0px&quot;&gt;&lt;span style=&quot;color: rgb(199 , 146 , 234)&quot;&gt;&amp;nbsp; template&lt;/span&gt;&lt;span style=&quot;color: rgb(137 , 221 , 255)&quot;&gt;&amp;lt;&lt;/span&gt;&lt;span style=&quot;color: rgb(199 , 146 , 234)&quot;&gt;class&lt;/span&gt;&lt;span&gt;&amp;nbsp;&lt;/span&gt;&lt;span style=&quot;color: rgb(255 , 203 , 107)&quot;&gt;I&lt;/span&gt;&lt;span style=&quot;color: rgb(137 , 221 , 255)&quot;&gt;&amp;gt;&lt;/span&gt;&lt;/div&gt;&lt;div style=&quot;color: rgb(238 , 255 , 255) ; font-family: &amp;#34;menlo&amp;#34; , &amp;#34;monaco&amp;#34; , &amp;#34;courier new&amp;#34; , monospace ; font-size: 15px ; font-style: normal ; font-weight: 400 ; letter-spacing: normal ; text-align: left ; text-indent: 0px ; text-transform: none ; word-spacing: 0px&quot;&gt;&lt;span style=&quot;color: rgb(199 , 146 , 234)&quot;&gt;&amp;nbsp; &amp;nbsp;inline&lt;/span&gt;&lt;span&gt;&amp;nbsp;&lt;/span&gt;&lt;span style=&quot;color: rgb(199 , 146 , 234)&quot;&gt;void&lt;/span&gt;&lt;span&gt;&amp;nbsp;&lt;/span&gt;&lt;span style=&quot;color: rgb(130 , 170 , 255)&quot;&gt;func&lt;/span&gt;&lt;span style=&quot;color: rgb(137 , 221 , 255)&quot;&gt;(&lt;/span&gt;&lt;span style=&quot;color: rgb(255 , 203 , 107)&quot;&gt;I&lt;/span&gt;&lt;span&gt;&amp;nbsp;&lt;/span&gt;&lt;span style=&quot;color: rgb(255 , 83 , 112)&quot;&gt;iter&lt;/span&gt;&lt;span style=&quot;color: rgb(137 , 221 , 255)&quot;&gt;)&lt;/span&gt;&lt;span&gt;&amp;nbsp;&lt;/span&gt;&lt;span style=&quot;color: rgb(137 , 221 , 255)&quot;&gt;{&lt;/span&gt;&lt;/div&gt;&lt;div style=&quot;color: rgb(238 , 255 , 255) ; font-family: &amp;#34;menlo&amp;#34; , &amp;#34;monaco&amp;#34; , &amp;#34;courier new&amp;#34; , monospace ; font-size: 15px ; font-style: normal ; font-weight: 400 ; letter-spacing: normal ; text-align: left ; text-indent: 0px ; text-transform: none ; word-spacing: 0px&quot;&gt;&lt;span style=&quot;color: rgb(74 , 74 , 74) ; font-style: italic&quot;&gt;&amp;nbsp; &amp;nbsp; &amp;nbsp;//func的工作全部在func_impl实现&lt;/span&gt;&lt;/div&gt;&lt;div style=&quot;font-family: &amp;#34;menlo&amp;#34; , &amp;#34;monaco&amp;#34; , &amp;#34;courier new&amp;#34; , monospace ; font-size: 15px ; font-style: normal ; font-weight: 400 ; letter-spacing: normal ; text-align: left ; text-indent: 0px ; text-transform: none ; word-spacing: 0px&quot;&gt;&lt;span style=&quot;color: rgb(130 , 170 , 255)&quot;&gt;&amp;nbsp; &amp;nbsp; &amp;nbsp;func_impl&lt;/span&gt;&lt;font color=&quot;#ffb570&quot;&gt;(iter,&amp;nbsp;*iter);&lt;/font&gt;&lt;/div&gt;&lt;div style=&quot;color: rgb(238 , 255 , 255) ; font-family: &amp;#34;menlo&amp;#34; , &amp;#34;monaco&amp;#34; , &amp;#34;courier new&amp;#34; , monospace ; font-size: 15px ; font-style: normal ; font-weight: 400 ; letter-spacing: normal ; text-align: left ; text-indent: 0px ; text-transform: none ; word-spacing: 0px&quot;&gt;&lt;span style=&quot;color: rgb(137 , 221 , 255)&quot;&gt;&amp;nbsp; }&lt;/span&gt;&lt;/div&gt;&lt;div style=&quot;color: rgb(238 , 255 , 255) ; font-family: &amp;#34;menlo&amp;#34; , &amp;#34;monaco&amp;#34; , &amp;#34;courier new&amp;#34; , monospace ; font-size: 15px ; font-style: normal ; font-weight: 400 ; letter-spacing: normal ; text-align: left ; text-indent: 0px ; text-transform: none ; word-spacing: 0px&quot;&gt;&lt;span style=&quot;color: rgb(199 , 146 , 234)&quot;&gt;&amp;nbsp;&lt;/span&gt;&lt;/div&gt;&lt;div style=&quot;color: rgb(238 , 255 , 255) ; font-family: &amp;#34;menlo&amp;#34; , &amp;#34;monaco&amp;#34; , &amp;#34;courier new&amp;#34; , monospace ; font-size: 15px ; font-style: normal ; font-weight: 400 ; letter-spacing: normal ; text-align: left ; text-indent: 0px ; text-transform: none ; word-spacing: 0px&quot;&gt;&lt;span style=&quot;color: rgb(199 , 146 , 234)&quot;&gt;&amp;nbsp;template&lt;/span&gt;&lt;span style=&quot;color: rgb(137 , 221 , 255)&quot;&gt;&amp;lt;&lt;/span&gt;&lt;span style=&quot;color: rgb(199 , 146 , 234)&quot;&gt;class&lt;/span&gt;&lt;span&gt;&amp;nbsp;&lt;/span&gt;&lt;span style=&quot;color: rgb(255 , 203 , 107)&quot;&gt;I&lt;/span&gt;&lt;span style=&quot;color: rgb(137 , 221 , 255)&quot;&gt;,&lt;/span&gt;&lt;span&gt;&amp;nbsp;&lt;/span&gt;&lt;span style=&quot;color: rgb(199 , 146 , 234)&quot;&gt;class&lt;/span&gt;&lt;span&gt;&amp;nbsp;&lt;/span&gt;&lt;span style=&quot;color: rgb(255 , 203 , 107)&quot;&gt;T&lt;/span&gt;&lt;span style=&quot;color: rgb(137 , 221 , 255)&quot;&gt;&amp;gt;&lt;/span&gt;&lt;/div&gt;&lt;div style=&quot;color: rgb(238 , 255 , 255) ; font-family: &amp;#34;menlo&amp;#34; , &amp;#34;monaco&amp;#34; , &amp;#34;courier new&amp;#34; , monospace ; font-size: 15px ; font-style: normal ; font-weight: 400 ; letter-spacing: normal ; text-align: left ; text-indent: 0px ; text-transform: none ; word-spacing: 0px&quot;&gt;&lt;span style=&quot;color: rgb(199 , 146 , 234)&quot;&gt;&amp;nbsp;void&lt;/span&gt;&lt;span&gt;&amp;nbsp;&lt;/span&gt;&lt;span style=&quot;color: rgb(130 , 170 , 255)&quot;&gt;func_impl&lt;/span&gt;&lt;span style=&quot;color: rgb(137 , 221 , 255)&quot;&gt;(&lt;/span&gt;&lt;span style=&quot;color: rgb(255 , 203 , 107)&quot;&gt;I&lt;/span&gt;&lt;span&gt;&amp;nbsp;&lt;/span&gt;&lt;span style=&quot;color: rgb(255 , 83 , 112)&quot;&gt;iter&lt;/span&gt;&lt;span style=&quot;color: rgb(137 , 221 , 255)&quot;&gt;,&lt;/span&gt;&lt;span&gt;&amp;nbsp;&lt;/span&gt;&lt;span style=&quot;color: rgb(255 , 203 , 107)&quot;&gt;T&lt;/span&gt;&lt;span&gt;&amp;nbsp;&lt;/span&gt;&lt;span style=&quot;color: rgb(255 , 83 , 112)&quot;&gt;t&lt;/span&gt;&lt;span style=&quot;color: rgb(137 , 221 , 255)&quot;&gt;)&lt;/span&gt;&lt;span&gt;&amp;nbsp;&lt;/span&gt;&lt;span style=&quot;color: rgb(137 , 221 , 255)&quot;&gt;{&lt;/span&gt;&lt;/div&gt;&lt;div style=&quot;font-family: &amp;#34;menlo&amp;#34; , &amp;#34;monaco&amp;#34; , &amp;#34;courier new&amp;#34; , monospace ; font-size: 15px ; font-style: normal ; font-weight: 400 ; letter-spacing: normal ; text-align: left ; text-indent: 0px ; text-transform: none ; word-spacing: 0px&quot;&gt;&lt;font color=&quot;#ffb570&quot;&gt;&amp;nbsp; &amp;nbsp; &amp;nbsp;T tmp&lt;/font&gt;&lt;span style=&quot;color: rgb(137 , 221 , 255)&quot;&gt;;&lt;/span&gt;&lt;span style=&quot;color: rgb(74 , 74 , 74) ; font-style: italic&quot;&gt;//T就是迭代器所指之物的类型&lt;/span&gt;&lt;/div&gt;&lt;div style=&quot;color: rgb(238 , 255 , 255) ; font-family: &amp;#34;menlo&amp;#34; , &amp;#34;monaco&amp;#34; , &amp;#34;courier new&amp;#34; , monospace ; font-size: 15px ; font-style: normal ; font-weight: 400 ; letter-spacing: normal ; text-align: left ; text-indent: 0px ; text-transform: none ; word-spacing: 0px&quot;&gt;&lt;span style=&quot;color: rgb(74 , 74 , 74) ; font-style: italic&quot;&gt;&amp;nbsp; &amp;nbsp; &amp;nbsp;//这里做原本func()应该做的事情&lt;/span&gt;&lt;/div&gt;&lt;div style=&quot;color: rgb(238 , 255 , 255) ; font-family: &amp;#34;menlo&amp;#34; , &amp;#34;monaco&amp;#34; , &amp;#34;courier new&amp;#34; , monospace ; font-size: 15px ; font-style: normal ; font-weight: 400 ; letter-spacing: normal ; text-align: left ; text-indent: 0px ; text-transform: none ; word-spacing: 0px&quot;&gt;&lt;span style=&quot;color: rgb(137 , 221 , 255)&quot;&gt;&amp;nbsp;}&lt;/span&gt;&lt;/div&gt;" style="text;whiteSpace=wrap;html=1;fontSize=15;strokeColor=#000000;dashed=1;strokeWidth=2;rounded=1;" parent="1" vertex="1">
          <mxGeometry x="27" y="760" width="345" height="240" as="geometry" />
        </mxCell>
        <mxCell id="s04vDubmSI25b-BMHzst-120" value="使用函数模板参数推导" style="ellipse;whiteSpace=wrap;html=1;dashed=1;strokeColor=#000000;fillColor=none;gradientColor=none;fontSize=15;" parent="1" vertex="1">
          <mxGeometry x="305" y="830" width="70" height="70" as="geometry" />
        </mxCell>
        <mxCell id="s04vDubmSI25b-BMHzst-121" value="" style="endArrow=none;dashed=1;html=1;fontSize=15;startArrow=block;startFill=1;entryX=0;entryY=0.5;entryDx=0;entryDy=0;" parent="1" target="s04vDubmSI25b-BMHzst-120" edge="1">
          <mxGeometry width="50" height="50" relative="1" as="geometry">
            <mxPoint x="229" y="885" as="sourcePoint" />
            <mxPoint x="279" y="835" as="targetPoint" />
          </mxGeometry>
        </mxCell>
        <mxCell id="s04vDubmSI25b-BMHzst-122" value="&lt;font face=&quot;courier new&quot;&gt;&lt;span style=&quot;font-size: 15px ; background-color: rgb(239 , 239 , 239)&quot;&gt;算法函数体重对迭代器类型的需求&lt;/span&gt;&lt;/font&gt;" style="text;whiteSpace=wrap;html=1;" parent="1" vertex="1">
          <mxGeometry x="89.5" y="1020" width="241" height="30" as="geometry" />
        </mxCell>
        <mxCell id="s04vDubmSI25b-BMHzst-125" value="&lt;div style=&quot;color: rgb(238 , 255 , 255) ; font-family: &amp;#34;menlo&amp;#34; , &amp;#34;monaco&amp;#34; , &amp;#34;courier new&amp;#34; , monospace ; font-size: 15px ; font-style: normal ; font-weight: 400 ; letter-spacing: normal ; text-align: left ; text-indent: 0px ; text-transform: none ; word-spacing: 0px&quot;&gt;&lt;span style=&quot;color: rgb(199 , 146 , 234)&quot;&gt;&amp;nbsp;&lt;/span&gt;&lt;/div&gt;&lt;div style=&quot;color: rgb(238 , 255 , 255) ; font-family: &amp;#34;menlo&amp;#34; , &amp;#34;monaco&amp;#34; , &amp;#34;courier new&amp;#34; , monospace ; font-size: 15px ; font-style: normal ; font-weight: 400 ; letter-spacing: normal ; text-align: left ; text-indent: 0px ; text-transform: none ; word-spacing: 0px&quot;&gt;&lt;span style=&quot;color: rgb(199 , 146 , 234)&quot;&gt;&amp;nbsp;template&lt;/span&gt;&lt;span style=&quot;color: rgb(137 , 221 , 255)&quot;&gt;&amp;lt;&lt;/span&gt;&lt;span style=&quot;color: rgb(199 , 146 , 234)&quot;&gt;class&lt;/span&gt;&lt;span style=&quot;color: rgb(238 , 255 , 255)&quot;&gt;&lt;span&gt;&amp;nbsp;&lt;/span&gt;&lt;/span&gt;&lt;span style=&quot;color: rgb(255 , 203 , 107)&quot;&gt;I&lt;/span&gt;&lt;span style=&quot;color: rgb(137 , 221 , 255)&quot;&gt;&amp;gt;&lt;/span&gt;&lt;/div&gt;&lt;div style=&quot;font-family: &amp;#34;menlo&amp;#34; , &amp;#34;monaco&amp;#34; , &amp;#34;courier new&amp;#34; , monospace ; font-size: 15px ; font-style: normal ; font-weight: 400 ; letter-spacing: normal ; text-align: left ; text-indent: 0px ; text-transform: none ; word-spacing: 0px&quot;&gt;&lt;span style=&quot;color: rgb(199 , 146 , 234)&quot;&gt;&amp;nbsp; &amp;nbsp;typename&lt;/span&gt;&lt;span style=&quot;color: rgb(238 , 255 , 255)&quot;&gt;&lt;span&gt;&amp;nbsp;&lt;/span&gt;&lt;/span&gt;&lt;span style=&quot;color: rgb(255 , 203 , 107)&quot;&gt;I&lt;/span&gt;&lt;span style=&quot;color: rgb(137 , 221 , 255)&quot;&gt;::&lt;/span&gt;&lt;span style=&quot;color: rgb(255 , 203 , 107)&quot;&gt;value_type&lt;/span&gt;&lt;span style=&quot;color: rgb(238 , 255 , 255)&quot;&gt;&lt;span&gt;&amp;nbsp;&lt;/span&gt;&lt;/span&gt;&lt;span style=&quot;color: rgb(130 , 170 , 255)&quot;&gt;func&lt;/span&gt;&lt;span style=&quot;color: rgb(137 , 221 , 255)&quot;&gt;(&lt;/span&gt;&lt;font color=&quot;#ffb570&quot;&gt;I iter&lt;/font&gt;&lt;span style=&quot;color: rgb(137 , 221 , 255)&quot;&gt;)&lt;/span&gt;&lt;span style=&quot;color: rgb(238 , 255 , 255)&quot;&gt;&lt;span&gt;&amp;nbsp;&lt;/span&gt;&lt;/span&gt;&lt;span style=&quot;color: rgb(137 , 221 , 255)&quot;&gt;{&lt;/span&gt;&lt;/div&gt;&lt;div style=&quot;font-family: &amp;#34;menlo&amp;#34; , &amp;#34;monaco&amp;#34; , &amp;#34;courier new&amp;#34; , monospace ; font-size: 15px ; font-style: normal ; font-weight: 400 ; letter-spacing: normal ; text-align: left ; text-indent: 0px ; text-transform: none ; word-spacing: 0px&quot;&gt;&lt;span style=&quot;color: rgb(238 , 255 , 255)&quot;&gt;&lt;/span&gt;&lt;span style=&quot;color: rgb(137 , 221 , 255) ; font-style: italic&quot;&gt;&amp;nbsp; return&lt;/span&gt;&lt;span style=&quot;color: rgb(238 , 255 , 255)&quot;&gt;&lt;span&gt;&amp;nbsp;&lt;/span&gt;&lt;/span&gt;&lt;span style=&quot;color: rgb(199 , 146 , 234)&quot;&gt;*&lt;/span&gt;&lt;font color=&quot;#ffb570&quot;&gt;iter&lt;/font&gt;&lt;span style=&quot;color: rgb(137 , 221 , 255)&quot;&gt;;&lt;/span&gt;&lt;span style=&quot;color: rgb(74 , 74 , 74) ; font-style: italic&quot;&gt;//func的返回类型&lt;/span&gt;&lt;/div&gt;&lt;div style=&quot;color: rgb(238 , 255 , 255) ; font-family: &amp;#34;menlo&amp;#34; , &amp;#34;monaco&amp;#34; , &amp;#34;courier new&amp;#34; , monospace ; font-size: 15px ; font-style: normal ; font-weight: 400 ; letter-spacing: normal ; text-align: left ; text-indent: 0px ; text-transform: none ; word-spacing: 0px&quot;&gt;&lt;span style=&quot;color: rgb(137 , 221 , 255)&quot;&gt;&amp;nbsp;}&lt;/span&gt;&lt;/div&gt;&lt;div style=&quot;color: rgb(238 , 255 , 255) ; font-family: &amp;#34;menlo&amp;#34; , &amp;#34;monaco&amp;#34; , &amp;#34;courier new&amp;#34; , monospace ; font-size: 15px ; font-style: normal ; font-weight: 400 ; letter-spacing: normal ; text-align: left ; text-indent: 0px ; text-transform: none ; word-spacing: 0px&quot;&gt;&lt;span style=&quot;color: rgb(137 , 221 , 255)&quot;&gt;&lt;br&gt;&lt;/span&gt;&lt;/div&gt;&lt;div style=&quot;color: rgb(238 , 255 , 255) ; font-family: &amp;#34;menlo&amp;#34; , &amp;#34;monaco&amp;#34; , &amp;#34;courier new&amp;#34; , monospace ; font-size: 15px ; font-style: normal ; font-weight: 400 ; letter-spacing: normal ; text-align: left ; text-indent: 0px ; text-transform: none ; word-spacing: 0px&quot;&gt;&lt;div style=&quot;color: rgb(0 , 0 , 0)&quot;&gt;&lt;font color=&quot;#666666&quot;&gt;&amp;nbsp;返回类型必须加上关键字 typename 因为&lt;/font&gt;&lt;/div&gt;&lt;div style=&quot;color: rgb(0 , 0 , 0)&quot;&gt;&lt;font color=&quot;#666666&quot;&gt;&amp;nbsp;T 是一个 template 参数，在它被编译器具体实现之前&lt;/font&gt;&lt;/div&gt;&lt;div style=&quot;color: rgb(0 , 0 , 0)&quot;&gt;&lt;font color=&quot;#666666&quot;&gt;&amp;nbsp;编译器对T一无所知，因此不知道&amp;nbsp;MyIter&amp;lt;T&amp;gt;::value&amp;nbsp; &amp;nbsp;代表的是一个类型&lt;/font&gt;&lt;span style=&quot;color: rgb(102 , 102 , 102)&quot;&gt;或者一个 member function 或是一&amp;nbsp; &amp;nbsp;个 data member&amp;nbsp;&lt;/span&gt;&lt;span style=&quot;color: rgb(102 , 102 , 102)&quot;&gt;所以需要关键字 typename 告诉编译 器这是一个类型&lt;/span&gt;&lt;/div&gt;&lt;/div&gt;" style="text;whiteSpace=wrap;html=1;fontSize=15;dashed=1;strokeWidth=2;rounded=1;strokeColor=#000000;" parent="1" vertex="1">
          <mxGeometry x="392" y="760" width="400" height="245" as="geometry" />
        </mxCell>
        <mxCell id="s04vDubmSI25b-BMHzst-128" value="&lt;font face=&quot;courier new&quot;&gt;&lt;span style=&quot;font-size: 15px ; background-color: rgb(239 , 239 , 239)&quot;&gt;算法返回类型对迭代器类型的需求&lt;/span&gt;&lt;/font&gt;" style="text;whiteSpace=wrap;html=1;" parent="1" vertex="1">
          <mxGeometry x="471.5" y="1020" width="241" height="30" as="geometry" />
        </mxCell>
        <mxCell id="BNzrlYS9I8KQio5aA35w-4" style="edgeStyle=orthogonalEdgeStyle;rounded=0;orthogonalLoop=1;jettySize=auto;html=1;exitX=0.5;exitY=1;exitDx=0;exitDy=0;strokeColor=#99CCFF;entryX=0.5;entryY=0;entryDx=0;entryDy=0;" parent="1" source="BNzrlYS9I8KQio5aA35w-5" target="BNzrlYS9I8KQio5aA35w-6" edge="1">
          <mxGeometry relative="1" as="geometry">
            <mxPoint x="199.5" y="5" as="targetPoint" />
          </mxGeometry>
        </mxCell>
        <mxCell id="BNzrlYS9I8KQio5aA35w-5" value="&lt;strong style=&quot;box-sizing: border-box; color: rgb(51, 51, 51); font-size: 12px;&quot;&gt;&lt;span class=&quot;md-plain&quot; style=&quot;box-sizing: border-box; font-size: 12px;&quot;&gt;&lt;font face=&quot;Comic Sans MS&quot; style=&quot;font-size: 12px;&quot;&gt;获得迭代器型别&lt;br style=&quot;font-size: 12px;&quot;&gt;&lt;/font&gt;&lt;/span&gt;&lt;/strong&gt;" style="rhombus;whiteSpace=wrap;html=1;strokeWidth=2;fillWeight=-1;hachureGap=8;fillStyle=cross-hatch;sketch=0;shadow=1;glass=0;fillColor=#dae8fc;dashed=1;strokeColor=#6c8ebf;fontSize=12;" parent="1" vertex="1">
          <mxGeometry x="139.5" y="-95" width="120" height="60" as="geometry" />
        </mxCell>
        <mxCell id="BNzrlYS9I8KQio5aA35w-12" style="edgeStyle=orthogonalEdgeStyle;rounded=0;orthogonalLoop=1;jettySize=auto;html=1;exitX=0.5;exitY=1;exitDx=0;exitDy=0;entryX=0.5;entryY=0;entryDx=0;entryDy=0;fontSize=14;" parent="1" source="BNzrlYS9I8KQio5aA35w-6" target="s04vDubmSI25b-BMHzst-6" edge="1">
          <mxGeometry relative="1" as="geometry" />
        </mxCell>
        <mxCell id="BNzrlYS9I8KQio5aA35w-6" value="&lt;font color=&quot;#007fff&quot; face=&quot;Comic Sans MS&quot; style=&quot;font-size: 12px;&quot;&gt;模板参数自动推导&lt;br style=&quot;font-size: 12px;&quot;&gt;&lt;/font&gt;" style="rounded=1;whiteSpace=wrap;html=1;labelBackgroundColor=none;fontSize=12;fillColor=#ffe6cc;strokeColor=#d79b00;align=left;shadow=1;sketch=0;glass=0;" parent="1" vertex="1">
          <mxGeometry x="151" y="-15" width="102" height="30" as="geometry" />
        </mxCell>
        <mxCell id="BNzrlYS9I8KQio5aA35w-9" style="edgeStyle=orthogonalEdgeStyle;rounded=0;orthogonalLoop=1;jettySize=auto;html=1;exitX=0.5;exitY=1;exitDx=0;exitDy=0;strokeColor=#99CCFF;entryX=0.5;entryY=0;entryDx=0;entryDy=0;" parent="1" source="BNzrlYS9I8KQio5aA35w-10" target="BNzrlYS9I8KQio5aA35w-11" edge="1">
          <mxGeometry relative="1" as="geometry">
            <mxPoint x="202" y="270" as="targetPoint" />
          </mxGeometry>
        </mxCell>
        <mxCell id="BNzrlYS9I8KQio5aA35w-16" value="" style="edgeStyle=orthogonalEdgeStyle;rounded=0;orthogonalLoop=1;jettySize=auto;html=1;fontSize=12;" parent="1" source="BNzrlYS9I8KQio5aA35w-10" target="BNzrlYS9I8KQio5aA35w-15" edge="1">
          <mxGeometry relative="1" as="geometry" />
        </mxCell>
        <mxCell id="BNzrlYS9I8KQio5aA35w-10" value="&lt;strong style=&quot;box-sizing: border-box; color: rgb(51, 51, 51); font-size: 12px;&quot;&gt;&lt;span class=&quot;md-plain&quot; style=&quot;box-sizing: border-box; font-size: 12px;&quot;&gt;&lt;font face=&quot;Comic Sans MS&quot; style=&quot;font-size: 12px;&quot;&gt;解决原生指针的内嵌型别&lt;/font&gt;&lt;/span&gt;&lt;/strong&gt;" style="rhombus;whiteSpace=wrap;html=1;strokeWidth=2;fillWeight=-1;hachureGap=8;fillStyle=cross-hatch;sketch=0;shadow=1;glass=0;fillColor=#dae8fc;dashed=1;strokeColor=#6c8ebf;fontSize=12;" parent="1" vertex="1">
          <mxGeometry x="142" y="190" width="120" height="60" as="geometry" />
        </mxCell>
        <mxCell id="BNzrlYS9I8KQio5aA35w-11" value="&lt;font color=&quot;#007fff&quot; face=&quot;Comic Sans MS&quot; style=&quot;font-size: 12px;&quot;&gt;模板偏特化&lt;br style=&quot;font-size: 12px;&quot;&gt;&lt;/font&gt;" style="rounded=1;whiteSpace=wrap;html=1;labelBackgroundColor=none;fontSize=12;fillColor=#ffe6cc;strokeColor=#d79b00;align=left;shadow=1;sketch=0;glass=0;" parent="1" vertex="1">
          <mxGeometry x="169.25" y="280" width="61.5" height="30" as="geometry" />
        </mxCell>
        <mxCell id="BNzrlYS9I8KQio5aA35w-15" value="&lt;font color=&quot;#007fff&quot; face=&quot;Comic Sans MS&quot; style=&quot;font-size: 12px&quot;&gt;特性萃取traits&lt;br style=&quot;font-size: 12px&quot;&gt;&lt;/font&gt;" style="rounded=1;whiteSpace=wrap;html=1;labelBackgroundColor=none;fontSize=12;fillColor=#ffe6cc;strokeColor=#d79b00;align=left;shadow=1;sketch=0;glass=0;" parent="1" vertex="1">
          <mxGeometry x="290" y="205" width="90" height="30" as="geometry" />
        </mxCell>
        <mxCell id="BNzrlYS9I8KQio5aA35w-17" value="&lt;font face=&quot;courier new&quot; style=&quot;font-size: 11px;&quot;&gt;&lt;span style=&quot;font-size: 11px; background-color: rgb(239, 239, 239);&quot;&gt;原生指针如何处理&lt;/span&gt;&lt;/font&gt;" style="text;whiteSpace=wrap;html=1;fontSize=11;" parent="1" vertex="1">
          <mxGeometry x="224.75" y="239" width="109.25" height="30" as="geometry" />
        </mxCell>
        <mxCell id="_t8mcv2my3elO7ZdnXhT-8" value="" style="edgeStyle=orthogonalEdgeStyle;rounded=0;orthogonalLoop=1;jettySize=auto;html=1;fontSize=11;" parent="1" source="BNzrlYS9I8KQio5aA35w-18" target="_t8mcv2my3elO7ZdnXhT-6" edge="1">
          <mxGeometry relative="1" as="geometry" />
        </mxCell>
        <mxCell id="BNzrlYS9I8KQio5aA35w-18" value="&lt;font color=&quot;#007fff&quot; face=&quot;Comic Sans MS&quot; style=&quot;font-size: 12px&quot;&gt;增加了中间一层class&lt;br style=&quot;font-size: 12px&quot;&gt;&lt;/font&gt;" style="rounded=1;whiteSpace=wrap;html=1;labelBackgroundColor=none;fontSize=12;fillColor=#ffe6cc;strokeColor=#d79b00;align=left;shadow=1;sketch=0;glass=0;" parent="1" vertex="1">
          <mxGeometry x="553" y="-20" width="117" height="30" as="geometry" />
        </mxCell>
        <mxCell id="_t8mcv2my3elO7ZdnXhT-2" value="&lt;font color=&quot;#007fff&quot; face=&quot;Comic Sans MS&quot; style=&quot;font-size: 12px&quot;&gt;解决获取迭代器型别中的原生指针问题&lt;br style=&quot;font-size: 12px&quot;&gt;&lt;/font&gt;" style="rounded=1;whiteSpace=wrap;html=1;labelBackgroundColor=none;fontSize=12;fillColor=#ffe6cc;strokeColor=#d79b00;align=left;shadow=1;sketch=0;glass=0;" parent="1" vertex="1">
          <mxGeometry x="690" y="-20" width="117" height="30" as="geometry" />
        </mxCell>
        <mxCell id="_t8mcv2my3elO7ZdnXhT-3" value="&lt;span class=&quot;md-plain md-expand&quot; style=&quot;box-sizing: border-box&quot;&gt;特化一下 &lt;/span&gt;&lt;span spellcheck=&quot;false&quot; style=&quot;box-sizing: border-box&quot;&gt;&lt;code style=&quot;box-sizing: border-box ; text-align: left ; border: 1px solid rgb(231 , 234 , 237) ; background-color: rgb(243 , 244 , 244) ; border-top-left-radius: 3px ; border-top-right-radius: 3px ; border-bottom-right-radius: 3px ; border-bottom-left-radius: 3px ; padding: 0px 2px ; font-size: 0.9em&quot;&gt;iterator_tartis&lt;/code&gt;&lt;span class=&quot;md-plain&quot; style=&quot;box-sizing: border-box&quot;&gt;  使其支持  &lt;/span&gt;&lt;span spellcheck=&quot;false&quot; style=&quot;box-sizing: border-box&quot;&gt;&lt;code style=&quot;box-sizing: border-box ; text-align: left ; border: 1px solid rgb(231 , 234 , 237) ; background-color: rgb(243 , 244 , 244) ; border-top-left-radius: 3px ; border-top-right-radius: 3px ; border-bottom-right-radius: 3px ; border-bottom-left-radius: 3px ; padding: 0px 2px ; font-size: 0.9em&quot;&gt;pointer&lt;/code&gt;&lt;span class=&quot;md-plain&quot; style=&quot;box-sizing: border-box&quot;&gt;  和  &lt;/span&gt;&lt;span spellcheck=&quot;false&quot; style=&quot;box-sizing: border-box&quot;&gt;&lt;code style=&quot;box-sizing: border-box ; text-align: left ; border: 1px solid rgb(231 , 234 , 237) ; background-color: rgb(243 , 244 , 244) ; border-top-left-radius: 3px ; border-top-right-radius: 3px ; border-bottom-right-radius: 3px ; border-bottom-left-radius: 3px ; padding: 0px 2px ; font-size: 0.9em&quot;&gt;const pointer&lt;/code&gt;&lt;span class=&quot;md-plain md-expand&quot; style=&quot;box-sizing: border-box&quot;&gt; 。&lt;/span&gt;&lt;/span&gt;&lt;/span&gt;&lt;/span&gt;" style="text;whiteSpace=wrap;html=1;fontSize=11;" parent="1" vertex="1">
          <mxGeometry x="480" y="180" width="420" height="25" as="geometry" />
        </mxCell>
        <mxCell id="_t8mcv2my3elO7ZdnXhT-4" value="&lt;font color=&quot;#007fff&quot; face=&quot;Comic Sans MS&quot; style=&quot;font-size: 12px&quot;&gt;特化 iterator_traits&lt;br style=&quot;font-size: 12px&quot;&gt;&lt;/font&gt;" style="rounded=1;whiteSpace=wrap;html=1;labelBackgroundColor=none;fontSize=12;fillColor=#ffe6cc;strokeColor=#d79b00;align=left;shadow=1;sketch=0;glass=0;" parent="1" vertex="1">
          <mxGeometry x="553" y="56" width="117" height="30" as="geometry" />
        </mxCell>
        <mxCell id="_t8mcv2my3elO7ZdnXhT-5" value="" style="shape=curlyBracket;whiteSpace=wrap;html=1;rounded=1;fillColor=#dae8fc;strokeColor=#6c8ebf;strokeWidth=2;" parent="1" vertex="1">
          <mxGeometry x="670" y="38" width="27.5" height="66" as="geometry" />
        </mxCell>
        <mxCell id="_t8mcv2my3elO7ZdnXhT-6" value="&lt;font color=&quot;#007fff&quot; face=&quot;Comic Sans MS&quot; style=&quot;font-size: 12px&quot;&gt;支持原生指针&lt;br style=&quot;font-size: 12px&quot;&gt;&lt;/font&gt;" style="rounded=1;whiteSpace=wrap;html=1;labelBackgroundColor=none;fontSize=12;fillColor=#ffe6cc;strokeColor=#d79b00;align=left;shadow=1;sketch=0;glass=0;" parent="1" vertex="1">
          <mxGeometry x="697.5" y="24.5" width="82.5" height="30" as="geometry" />
        </mxCell>
        <mxCell id="_t8mcv2my3elO7ZdnXhT-7" value="&lt;font color=&quot;#007fff&quot; face=&quot;Comic Sans MS&quot; style=&quot;font-size: 12px&quot;&gt;支持const指针&lt;br style=&quot;font-size: 12px&quot;&gt;&lt;/font&gt;" style="rounded=1;whiteSpace=wrap;html=1;labelBackgroundColor=none;fontSize=12;fillColor=#ffe6cc;strokeColor=#d79b00;align=left;shadow=1;sketch=0;glass=0;" parent="1" vertex="1">
          <mxGeometry x="697.5" y="86" width="90" height="30" as="geometry" />
        </mxCell>
        <mxCell id="Xsz0MHvSW5-IFm0W_X-1-1" value="" style="shape=curlyBracket;whiteSpace=wrap;html=1;rounded=1;fillColor=#dae8fc;strokeColor=#6c8ebf;strokeWidth=2;" vertex="1" parent="1">
          <mxGeometry x="523" y="-212.75" width="30" height="90" as="geometry" />
        </mxCell>
        <mxCell id="Xsz0MHvSW5-IFm0W_X-1-2" value="&lt;font face=&quot;Comic Sans MS&quot;&gt;C++ 两种编程范式&lt;/font&gt;" style="rounded=0;whiteSpace=wrap;html=1;fillColor=#d5e8d4;strokeColor=#82b366;dashed=1;fontSize=15;" vertex="1" parent="1">
          <mxGeometry x="400" y="-180" width="123" height="34.5" as="geometry" />
        </mxCell>
        <mxCell id="Xsz0MHvSW5-IFm0W_X-1-4" value="&lt;font color=&quot;#007fff&quot; face=&quot;Comic Sans MS&quot; style=&quot;font-size: 12px&quot;&gt;OOP：面向对象编程&lt;br style=&quot;font-size: 12px&quot;&gt;&lt;/font&gt;" style="rounded=1;whiteSpace=wrap;html=1;labelBackgroundColor=none;fontSize=12;fillColor=#ffe6cc;strokeColor=#d79b00;align=left;shadow=1;sketch=0;glass=0;" vertex="1" parent="1">
          <mxGeometry x="553" y="-220" width="117" height="30" as="geometry" />
        </mxCell>
        <mxCell id="Xsz0MHvSW5-IFm0W_X-1-6" value="&lt;font color=&quot;#007fff&quot; face=&quot;Comic Sans MS&quot; style=&quot;font-size: 12px&quot;&gt;&amp;nbsp; &amp;nbsp; &amp;nbsp;GP：泛型编程&lt;br style=&quot;font-size: 12px&quot;&gt;&lt;/font&gt;" style="rounded=1;whiteSpace=wrap;html=1;labelBackgroundColor=none;fontSize=12;fillColor=#ffe6cc;strokeColor=#d79b00;align=left;shadow=1;sketch=0;glass=0;" vertex="1" parent="1">
          <mxGeometry x="553" y="-144" width="117" height="30" as="geometry" />
        </mxCell>
        <mxCell id="Xsz0MHvSW5-IFm0W_X-1-10" value="" style="shape=curlyBracket;whiteSpace=wrap;html=1;rounded=1;fillColor=#dae8fc;strokeColor=#6c8ebf;strokeWidth=2;" vertex="1" parent="1">
          <mxGeometry x="670" y="-156.5" width="30" height="55" as="geometry" />
        </mxCell>
        <mxCell id="Xsz0MHvSW5-IFm0W_X-1-11" value="&lt;font color=&quot;#007fff&quot; face=&quot;Comic Sans MS&quot; style=&quot;font-size: 12px&quot;&gt;多种数据类型在同一种算法或结构上都可以操作&lt;br style=&quot;font-size: 12px&quot;&gt;&lt;/font&gt;" style="rounded=1;whiteSpace=wrap;html=1;labelBackgroundColor=none;fontSize=12;fillColor=#ffe6cc;strokeColor=#d79b00;align=left;shadow=1;sketch=0;glass=0;" vertex="1" parent="1">
          <mxGeometry x="690" y="-170" width="260" height="30" as="geometry" />
        </mxCell>
        <mxCell id="Xsz0MHvSW5-IFm0W_X-1-12" value="&lt;font color=&quot;#007fff&quot; face=&quot;Comic Sans MS&quot; style=&quot;font-size: 12px&quot;&gt;静态多态：在编译期确定聚类数据类型&lt;br style=&quot;font-size: 12px&quot;&gt;&lt;/font&gt;" style="rounded=1;whiteSpace=wrap;html=1;labelBackgroundColor=none;fontSize=12;fillColor=#ffe6cc;strokeColor=#d79b00;align=left;shadow=1;sketch=0;glass=0;" vertex="1" parent="1">
          <mxGeometry x="690" y="-122.75" width="260" height="30" as="geometry" />
        </mxCell>
        <mxCell id="Xsz0MHvSW5-IFm0W_X-1-15" value="" style="shape=curlyBracket;whiteSpace=wrap;html=1;rounded=1;fillColor=#dae8fc;strokeColor=#6c8ebf;strokeWidth=2;" vertex="1" parent="1">
          <mxGeometry x="667.5" y="-232.5" width="30" height="55" as="geometry" />
        </mxCell>
        <mxCell id="Xsz0MHvSW5-IFm0W_X-1-13" value="&lt;font color=&quot;#007fff&quot; face=&quot;Comic Sans MS&quot; style=&quot;font-size: 12px&quot;&gt;&amp;nbsp;方法和成员变量在一个类中实现&lt;br style=&quot;font-size: 12px&quot;&gt;&lt;/font&gt;" style="rounded=1;whiteSpace=wrap;html=1;labelBackgroundColor=none;fontSize=12;fillColor=#ffe6cc;strokeColor=#d79b00;align=left;shadow=1;sketch=0;glass=0;" vertex="1" parent="1">
          <mxGeometry x="690" y="-247" width="260" height="30" as="geometry" />
        </mxCell>
        <mxCell id="Xsz0MHvSW5-IFm0W_X-1-14" value="&lt;font color=&quot;#007fff&quot; face=&quot;Comic Sans MS&quot; style=&quot;font-size: 12px&quot;&gt;动态多态：运行过程利用虚函数表确认数据类型&lt;br style=&quot;font-size: 12px&quot;&gt;&lt;/font&gt;" style="rounded=1;whiteSpace=wrap;html=1;labelBackgroundColor=none;fontSize=12;fillColor=#ffe6cc;strokeColor=#d79b00;align=left;shadow=1;sketch=0;glass=0;" vertex="1" parent="1">
          <mxGeometry x="690" y="-204.5" width="260" height="27" as="geometry" />
        </mxCell>
      </root>
    </mxGraphModel>
  </diagram>
</mxfile>
